G04 Layer: TopSilkLayer*
G04 EasyEDA v6.4.17, 2021-02-24T11:03:34+07:00*
G04 ef73d0174efa4e16a56b608a547b3d4a,ed1066999ab64682bb259e5b7afb0417,10*
G04 Gerber Generator version 0.2*
G04 Scale: 100 percent, Rotated: No, Reflected: No *
G04 Dimensions in inches *
G04 leading zeros omitted , absolute positions ,3 integer and 6 decimal *
%FSLAX36Y36*%
%MOIN*%

%ADD10C,0.0100*%
%ADD13C,0.0060*%

%LPD*%
D13*
X750000Y325399D02*
G01*
X766400Y282500D01*
X782700Y325399D02*
G01*
X766400Y282500D01*
X796199Y325399D02*
G01*
X796199Y282500D01*
X809700Y325399D02*
G01*
X809700Y282500D01*
X809700Y325399D02*
G01*
X838400Y282500D01*
X838400Y325399D02*
G01*
X838400Y282500D01*
X220700Y310199D02*
G01*
X218600Y314299D01*
X214499Y318400D01*
X210500Y320399D01*
X202300Y320399D01*
X198200Y318400D01*
X194099Y314299D01*
X191999Y310199D01*
X190000Y304000D01*
X190000Y293800D01*
X191999Y287699D01*
X194099Y283600D01*
X198200Y279499D01*
X202300Y277500D01*
X210500Y277500D01*
X214499Y279499D01*
X218600Y283600D01*
X220700Y287699D01*
X262800Y314299D02*
G01*
X258699Y318400D01*
X252600Y320399D01*
X244400Y320399D01*
X238299Y318400D01*
X234200Y314299D01*
X234200Y310199D01*
X236199Y306100D01*
X238299Y304000D01*
X242399Y301999D01*
X254600Y297899D01*
X258699Y295900D01*
X260799Y293800D01*
X262800Y289699D01*
X262800Y283600D01*
X258699Y279499D01*
X252600Y277500D01*
X244400Y277500D01*
X238299Y279499D01*
X234200Y283600D01*
X276300Y320399D02*
G01*
X276300Y277500D01*
X276300Y320399D02*
G01*
X292699Y277500D01*
X309000Y320399D02*
G01*
X292699Y277500D01*
X309000Y320399D02*
G01*
X309000Y277500D01*
X351199Y314299D02*
G01*
X347100Y318400D01*
X340999Y320399D01*
X332800Y320399D01*
X326599Y318400D01*
X322500Y314299D01*
X322500Y310199D01*
X324600Y306100D01*
X326599Y304000D01*
X330700Y301999D01*
X343000Y297899D01*
X347100Y295900D01*
X349099Y293800D01*
X351199Y289699D01*
X351199Y283600D01*
X347100Y279499D01*
X340999Y277500D01*
X332800Y277500D01*
X326599Y279499D01*
X322500Y283600D01*
X364699Y295900D02*
G01*
X401499Y295900D01*
X435500Y320399D02*
G01*
X435500Y287699D01*
X433400Y281500D01*
X431400Y279499D01*
X427299Y277500D01*
X423199Y277500D01*
X419099Y279499D01*
X416999Y281500D01*
X415000Y287699D01*
X415000Y291799D01*
X448999Y295900D02*
G01*
X485799Y295900D01*
X501300Y310199D02*
G01*
X501300Y312199D01*
X503400Y316300D01*
X505399Y318400D01*
X509499Y320399D01*
X517700Y320399D01*
X521800Y318400D01*
X523800Y316300D01*
X525900Y312199D01*
X525900Y308099D01*
X523800Y304000D01*
X519700Y297899D01*
X499300Y277500D01*
X527899Y277500D01*
X541400Y320399D02*
G01*
X541400Y277500D01*
X541400Y320399D02*
G01*
X557799Y277500D01*
X574099Y320399D02*
G01*
X557799Y277500D01*
X574099Y320399D02*
G01*
X574099Y277500D01*
X845000Y865399D02*
G01*
X845000Y822500D01*
X845000Y865399D02*
G01*
X873599Y822500D01*
X873599Y865399D02*
G01*
X873599Y822500D01*
X899399Y865399D02*
G01*
X895299Y863400D01*
X891199Y859299D01*
X889200Y855199D01*
X887100Y849000D01*
X887100Y838800D01*
X889200Y832699D01*
X891199Y828600D01*
X895299Y824499D01*
X899399Y822500D01*
X907600Y822500D01*
X911700Y824499D01*
X915799Y828600D01*
X917799Y832699D01*
X919899Y838800D01*
X919899Y849000D01*
X917799Y855199D01*
X915799Y859299D01*
X911700Y863400D01*
X907600Y865399D01*
X899399Y865399D01*
X933400Y865399D02*
G01*
X933400Y822500D01*
X933400Y865399D02*
G01*
X947700Y865399D01*
X953800Y863400D01*
X957899Y859299D01*
X960000Y855199D01*
X961999Y849000D01*
X961999Y838800D01*
X960000Y832699D01*
X957899Y828600D01*
X953800Y824499D01*
X947700Y822500D01*
X933400Y822500D01*
X975500Y865399D02*
G01*
X975500Y822500D01*
X975500Y865399D02*
G01*
X1002100Y865399D01*
X975500Y845000D02*
G01*
X991899Y845000D01*
X975500Y822500D02*
G01*
X1002100Y822500D01*
X1015600Y865399D02*
G01*
X1015600Y822500D01*
X1015600Y865399D02*
G01*
X1031999Y822500D01*
X1048299Y865399D02*
G01*
X1031999Y822500D01*
X1048299Y865399D02*
G01*
X1048299Y822500D01*
X1092500Y855199D02*
G01*
X1090500Y859299D01*
X1086400Y863400D01*
X1082299Y865399D01*
X1074099Y865399D01*
X1070000Y863400D01*
X1065900Y859299D01*
X1063900Y855199D01*
X1061800Y849000D01*
X1061800Y838800D01*
X1063900Y832699D01*
X1065900Y828600D01*
X1070000Y824499D01*
X1074099Y822500D01*
X1082299Y822500D01*
X1086400Y824499D01*
X1090500Y828600D01*
X1092500Y832699D01*
X1106000Y865399D02*
G01*
X1106000Y834699D01*
X1108000Y828600D01*
X1112100Y824499D01*
X1118299Y822500D01*
X1122399Y822500D01*
X1128500Y824499D01*
X1132600Y828600D01*
X1134600Y834699D01*
X1134600Y865399D01*
X1152200Y865399D02*
G01*
X1174700Y865399D01*
X1162500Y849000D01*
X1168599Y849000D01*
X1172700Y846999D01*
X1174700Y845000D01*
X1176800Y838800D01*
X1176800Y834699D01*
X1174700Y828600D01*
X1170600Y824499D01*
X1164499Y822500D01*
X1158400Y822500D01*
X1152200Y824499D01*
X1150200Y826500D01*
X1148100Y830599D01*
X1192299Y855199D02*
G01*
X1192299Y857199D01*
X1194399Y861300D01*
X1196400Y863400D01*
X1200500Y865399D01*
X1208699Y865399D01*
X1212799Y863400D01*
X1214799Y861300D01*
X1216899Y857199D01*
X1216899Y853099D01*
X1214799Y849000D01*
X1210699Y842899D01*
X1190299Y822500D01*
X1218900Y822500D01*
X1261000Y859299D02*
G01*
X1256999Y863400D01*
X1250799Y865399D01*
X1242600Y865399D01*
X1236499Y863400D01*
X1232399Y859299D01*
X1232399Y855199D01*
X1234499Y851100D01*
X1236499Y849000D01*
X1240600Y846999D01*
X1252899Y842899D01*
X1256999Y840900D01*
X1258999Y838800D01*
X1261000Y834699D01*
X1261000Y828600D01*
X1256999Y824499D01*
X1250799Y822500D01*
X1242600Y822500D01*
X1236499Y824499D01*
X1232399Y828600D01*
D10*
X945000Y250000D02*
G01*
X945000Y50000D01*
X645000Y50000D01*
X645000Y250000D01*
X945000Y250000D01*
X530000Y255000D02*
G01*
X530000Y55000D01*
X230000Y55000D01*
X230000Y255000D01*
X530000Y255000D01*
X145000Y420000D02*
G01*
X145000Y1310000D01*
X2035000Y1310000D01*
X2035000Y420000D01*
X145000Y420000D01*
M02*
