G04 Layer: TopLayer*
G04 EasyEDA v6.4.17, 2021-02-24T11:03:34+07:00*
G04 ef73d0174efa4e16a56b608a547b3d4a,ed1066999ab64682bb259e5b7afb0417,10*
G04 Gerber Generator version 0.2*
G04 Scale: 100 percent, Rotated: No, Reflected: No *
G04 Dimensions in inches *
G04 leading zeros omitted , absolute positions ,3 integer and 6 decimal *
%FSLAX36Y36*%
%MOIN*%

%ADD11C,0.0120*%
%ADD12C,0.0600*%

%LPD*%
G36*
X9100Y15100D02*
G01*
X7560Y15400D01*
X6280Y16279D01*
X5400Y17560D01*
X5100Y19100D01*
X5100Y1510900D01*
X5400Y1512440D01*
X6280Y1513720D01*
X7560Y1514600D01*
X9100Y1514900D01*
X2155900Y1514900D01*
X2157440Y1514600D01*
X2158720Y1513720D01*
X2159600Y1512440D01*
X2159900Y1510900D01*
X2159900Y19100D01*
X2159600Y17560D01*
X2158720Y16279D01*
X2157440Y15400D01*
X2155900Y15100D01*
G37*

%LPC*%
G36*
X2075000Y39900D02*
G01*
X2081040Y40279D01*
X2086980Y41360D01*
X2092760Y43160D01*
X2098280Y45640D01*
X2103460Y48780D01*
X2108220Y52500D01*
X2112500Y56780D01*
X2116220Y61540D01*
X2119360Y66720D01*
X2121840Y72240D01*
X2123640Y78020D01*
X2124720Y83960D01*
X2125100Y90000D01*
X2124720Y96039D01*
X2123640Y101980D01*
X2121840Y107760D01*
X2119360Y113280D01*
X2116220Y118460D01*
X2112500Y123219D01*
X2108220Y127500D01*
X2103460Y131220D01*
X2098280Y134360D01*
X2092760Y136840D01*
X2086980Y138640D01*
X2081040Y139720D01*
X2075000Y140100D01*
X2068959Y139720D01*
X2063020Y138640D01*
X2057240Y136840D01*
X2051720Y134360D01*
X2046540Y131220D01*
X2041780Y127500D01*
X2037500Y123219D01*
X2033779Y118460D01*
X2030640Y113280D01*
X2028160Y107760D01*
X2026360Y101980D01*
X2025280Y96039D01*
X2024900Y90000D01*
X2025280Y83960D01*
X2026360Y78020D01*
X2028160Y72240D01*
X2030640Y66720D01*
X2033779Y61540D01*
X2037500Y56780D01*
X2041780Y52500D01*
X2046540Y48780D01*
X2051720Y45640D01*
X2057240Y43160D01*
X2063020Y41360D01*
X2068959Y40279D01*
G37*
G36*
X82500Y44900D02*
G01*
X88539Y45279D01*
X94480Y46360D01*
X100260Y48160D01*
X105780Y50640D01*
X110960Y53780D01*
X115719Y57500D01*
X120000Y61780D01*
X123720Y66540D01*
X126860Y71720D01*
X129340Y77240D01*
X131140Y83020D01*
X132220Y88960D01*
X132600Y95000D01*
X132220Y101039D01*
X131140Y106980D01*
X129340Y112760D01*
X126860Y118280D01*
X123720Y123460D01*
X120000Y128219D01*
X115719Y132500D01*
X110960Y136220D01*
X105780Y139360D01*
X100260Y141840D01*
X94480Y143640D01*
X88539Y144720D01*
X82500Y145100D01*
X76460Y144720D01*
X70520Y143640D01*
X64740Y141840D01*
X59220Y139360D01*
X54040Y136220D01*
X49280Y132500D01*
X45000Y128219D01*
X41280Y123460D01*
X38140Y118280D01*
X35660Y112760D01*
X33860Y106980D01*
X32780Y101039D01*
X32400Y95000D01*
X32780Y88960D01*
X33860Y83020D01*
X35660Y77240D01*
X38140Y71720D01*
X41280Y66540D01*
X45000Y61780D01*
X49280Y57500D01*
X54040Y53780D01*
X59220Y50640D01*
X64740Y48160D01*
X70520Y46360D01*
X76460Y45279D01*
G37*
G36*
X845000Y109900D02*
G01*
X850340Y110260D01*
X855600Y111340D01*
X860660Y113100D01*
X865440Y115500D01*
X869840Y118539D01*
X873820Y122120D01*
X877280Y126220D01*
X880160Y130740D01*
X880560Y131580D01*
X881440Y132800D01*
X882700Y133620D01*
X884180Y133900D01*
X1674800Y133900D01*
X1678140Y134220D01*
X1681160Y135140D01*
X1683940Y136620D01*
X1686519Y138760D01*
X1968680Y420900D01*
X1969820Y421700D01*
X1971160Y422060D01*
X1972560Y421940D01*
X1977020Y420720D01*
X1982320Y420000D01*
X1987680Y420000D01*
X1992980Y420720D01*
X1998160Y422120D01*
X2003080Y424219D01*
X2007680Y426940D01*
X2011900Y430260D01*
X2015620Y434120D01*
X2018800Y438420D01*
X2021360Y443120D01*
X2023300Y448120D01*
X2024540Y453340D01*
X2025060Y458660D01*
X2024880Y464020D01*
X2024000Y469300D01*
X2022420Y474400D01*
X2020160Y479260D01*
X2017280Y483780D01*
X2013820Y487879D01*
X2009840Y491460D01*
X2005440Y494500D01*
X2000660Y496900D01*
X1995600Y498660D01*
X1990340Y499739D01*
X1985000Y500100D01*
X1979660Y499739D01*
X1974400Y498660D01*
X1969340Y496900D01*
X1964560Y494500D01*
X1960160Y491460D01*
X1956180Y487879D01*
X1952720Y483780D01*
X1949840Y479260D01*
X1947580Y474400D01*
X1946000Y469300D01*
X1945120Y464020D01*
X1944940Y458660D01*
X1945460Y453340D01*
X1946780Y447920D01*
X1947060Y446420D01*
X1946740Y444920D01*
X1945880Y443660D01*
X1669500Y167280D01*
X1668200Y166400D01*
X1666680Y166100D01*
X884160Y166100D01*
X882760Y166360D01*
X881540Y167079D01*
X880660Y168180D01*
X878800Y171580D01*
X875620Y175880D01*
X871900Y179740D01*
X867680Y183060D01*
X863080Y185780D01*
X858160Y187880D01*
X852980Y189280D01*
X847680Y190000D01*
X842320Y190000D01*
X837020Y189280D01*
X831840Y187880D01*
X826919Y185780D01*
X822320Y183060D01*
X818100Y179740D01*
X814380Y175880D01*
X811200Y171580D01*
X808640Y166880D01*
X806700Y161880D01*
X805460Y156660D01*
X804940Y151340D01*
X805120Y145980D01*
X806000Y140700D01*
X807580Y135600D01*
X809840Y130740D01*
X812720Y126220D01*
X816180Y122120D01*
X820160Y118539D01*
X824560Y115500D01*
X829340Y113100D01*
X834400Y111340D01*
X839659Y110260D01*
G37*
G36*
X727500Y114019D02*
G01*
X727500Y132500D01*
X709020Y132500D01*
X709840Y130740D01*
X712720Y126220D01*
X716180Y122120D01*
X720160Y118539D01*
X724560Y115500D01*
G37*
G36*
X762500Y114019D02*
G01*
X765440Y115500D01*
X769840Y118539D01*
X773820Y122120D01*
X777280Y126220D01*
X780160Y130740D01*
X780980Y132500D01*
X762500Y132500D01*
G37*
G36*
X430000Y114900D02*
G01*
X435340Y115260D01*
X440600Y116340D01*
X445660Y118100D01*
X450439Y120500D01*
X454840Y123539D01*
X458820Y127120D01*
X462280Y131220D01*
X465160Y135740D01*
X467420Y140600D01*
X469000Y145700D01*
X469880Y150980D01*
X470060Y156340D01*
X469540Y161660D01*
X468300Y166880D01*
X466360Y171880D01*
X463800Y176580D01*
X460620Y180880D01*
X456900Y184740D01*
X452680Y188060D01*
X448080Y190780D01*
X443160Y192880D01*
X437980Y194280D01*
X432680Y195000D01*
X427320Y195000D01*
X422020Y194280D01*
X416840Y192880D01*
X411920Y190780D01*
X407320Y188060D01*
X403100Y184740D01*
X399380Y180880D01*
X396200Y176580D01*
X393640Y171880D01*
X391700Y166880D01*
X390460Y161660D01*
X389940Y156340D01*
X390120Y150980D01*
X391000Y145700D01*
X392580Y140600D01*
X394840Y135740D01*
X397720Y131220D01*
X401180Y127120D01*
X405160Y123539D01*
X409560Y120500D01*
X414340Y118100D01*
X419400Y116340D01*
X424660Y115260D01*
G37*
G36*
X347500Y119019D02*
G01*
X350439Y120500D01*
X354840Y123539D01*
X358820Y127120D01*
X362280Y131220D01*
X365160Y135740D01*
X365980Y137500D01*
X347500Y137500D01*
G37*
G36*
X312500Y119019D02*
G01*
X312500Y137500D01*
X294020Y137500D01*
X294840Y135740D01*
X297720Y131220D01*
X301180Y127120D01*
X305160Y123539D01*
X309560Y120500D01*
G37*
G36*
X762500Y167500D02*
G01*
X781020Y167500D01*
X778800Y171580D01*
X775620Y175880D01*
X771900Y179740D01*
X767680Y183060D01*
X763080Y185780D01*
X762500Y186020D01*
G37*
G36*
X708980Y167500D02*
G01*
X727500Y167500D01*
X727500Y186020D01*
X726919Y185780D01*
X722320Y183060D01*
X718100Y179740D01*
X714380Y175880D01*
X711200Y171580D01*
G37*
G36*
X347500Y172500D02*
G01*
X366019Y172500D01*
X363800Y176580D01*
X360620Y180880D01*
X356900Y184740D01*
X352680Y188060D01*
X348080Y190780D01*
X347500Y191020D01*
G37*
G36*
X293980Y172500D02*
G01*
X312500Y172500D01*
X312500Y191020D01*
X311920Y190780D01*
X307320Y188060D01*
X303100Y184740D01*
X299380Y180880D01*
X296200Y176580D01*
G37*
G36*
X1082320Y420000D02*
G01*
X1087680Y420000D01*
X1092980Y420720D01*
X1098160Y422120D01*
X1103080Y424219D01*
X1107680Y426940D01*
X1111900Y430260D01*
X1115620Y434120D01*
X1118800Y438420D01*
X1121360Y443120D01*
X1123300Y448120D01*
X1124540Y453340D01*
X1125060Y458660D01*
X1124880Y464020D01*
X1124000Y469300D01*
X1122420Y474400D01*
X1120160Y479260D01*
X1117280Y483780D01*
X1113820Y487879D01*
X1109840Y491460D01*
X1105440Y494500D01*
X1100660Y496900D01*
X1095600Y498660D01*
X1090340Y499739D01*
X1085000Y500100D01*
X1079660Y499739D01*
X1074400Y498660D01*
X1069340Y496900D01*
X1064560Y494500D01*
X1060160Y491460D01*
X1056180Y487879D01*
X1052720Y483780D01*
X1049840Y479260D01*
X1047580Y474400D01*
X1046000Y469300D01*
X1045120Y464020D01*
X1044940Y458660D01*
X1045460Y453340D01*
X1046700Y448120D01*
X1048640Y443120D01*
X1051200Y438420D01*
X1054380Y434120D01*
X1058100Y430260D01*
X1062320Y426940D01*
X1066920Y424219D01*
X1071840Y422120D01*
X1077020Y420720D01*
G37*
G36*
X982320Y420000D02*
G01*
X987680Y420000D01*
X992980Y420720D01*
X998160Y422120D01*
X1003080Y424219D01*
X1007680Y426940D01*
X1011900Y430260D01*
X1015620Y434120D01*
X1018800Y438420D01*
X1021360Y443120D01*
X1023300Y448120D01*
X1024539Y453340D01*
X1025060Y458660D01*
X1024880Y464020D01*
X1024000Y469300D01*
X1022420Y474400D01*
X1020160Y479260D01*
X1017280Y483780D01*
X1013820Y487879D01*
X1009840Y491460D01*
X1005440Y494500D01*
X1000660Y496900D01*
X995600Y498660D01*
X990340Y499739D01*
X985000Y500100D01*
X979659Y499739D01*
X974400Y498660D01*
X969340Y496900D01*
X964560Y494500D01*
X960160Y491460D01*
X956180Y487879D01*
X952720Y483780D01*
X949840Y479260D01*
X947580Y474400D01*
X946000Y469300D01*
X945120Y464020D01*
X944940Y458660D01*
X945460Y453340D01*
X946700Y448120D01*
X948640Y443120D01*
X951200Y438420D01*
X954380Y434120D01*
X958100Y430260D01*
X962320Y426940D01*
X966919Y424219D01*
X971840Y422120D01*
X977020Y420720D01*
G37*
G36*
X1182320Y420000D02*
G01*
X1187680Y420000D01*
X1192980Y420720D01*
X1198160Y422120D01*
X1203080Y424219D01*
X1207680Y426940D01*
X1211900Y430260D01*
X1215620Y434120D01*
X1218800Y438420D01*
X1221360Y443120D01*
X1223300Y448120D01*
X1224540Y453340D01*
X1225060Y458660D01*
X1224880Y464020D01*
X1224000Y469300D01*
X1222420Y474400D01*
X1220160Y479260D01*
X1217280Y483780D01*
X1213820Y487879D01*
X1209840Y491460D01*
X1205440Y494500D01*
X1200660Y496900D01*
X1195600Y498660D01*
X1190340Y499739D01*
X1185000Y500100D01*
X1179660Y499739D01*
X1174400Y498660D01*
X1169340Y496900D01*
X1164560Y494500D01*
X1160160Y491460D01*
X1156180Y487879D01*
X1152720Y483780D01*
X1149840Y479260D01*
X1147580Y474400D01*
X1146000Y469300D01*
X1145120Y464020D01*
X1144940Y458660D01*
X1145460Y453340D01*
X1146700Y448120D01*
X1148640Y443120D01*
X1151200Y438420D01*
X1154380Y434120D01*
X1158100Y430260D01*
X1162320Y426940D01*
X1166920Y424219D01*
X1171840Y422120D01*
X1177020Y420720D01*
G37*
G36*
X882320Y420000D02*
G01*
X887680Y420000D01*
X892980Y420720D01*
X898160Y422120D01*
X903080Y424219D01*
X907680Y426940D01*
X911900Y430260D01*
X915620Y434120D01*
X918800Y438420D01*
X921360Y443120D01*
X923300Y448120D01*
X924539Y453340D01*
X925060Y458660D01*
X924880Y464020D01*
X924000Y469300D01*
X922420Y474400D01*
X920160Y479260D01*
X917280Y483780D01*
X913820Y487879D01*
X909840Y491460D01*
X905440Y494500D01*
X900660Y496900D01*
X895600Y498660D01*
X890340Y499739D01*
X885000Y500100D01*
X879659Y499739D01*
X874400Y498660D01*
X869340Y496900D01*
X864560Y494500D01*
X860160Y491460D01*
X856180Y487879D01*
X852720Y483780D01*
X849840Y479260D01*
X847580Y474400D01*
X846000Y469300D01*
X845120Y464020D01*
X844940Y458660D01*
X845460Y453340D01*
X846700Y448120D01*
X848640Y443120D01*
X851200Y438420D01*
X854380Y434120D01*
X858100Y430260D01*
X862320Y426940D01*
X866919Y424219D01*
X871840Y422120D01*
X877020Y420720D01*
G37*
G36*
X1282320Y420000D02*
G01*
X1287680Y420000D01*
X1292980Y420720D01*
X1298160Y422120D01*
X1303080Y424219D01*
X1307680Y426940D01*
X1311900Y430260D01*
X1315620Y434120D01*
X1318800Y438420D01*
X1321360Y443120D01*
X1323300Y448120D01*
X1324540Y453340D01*
X1325060Y458660D01*
X1324880Y464020D01*
X1324000Y469300D01*
X1322420Y474400D01*
X1320160Y479260D01*
X1317280Y483780D01*
X1313820Y487879D01*
X1309840Y491460D01*
X1305440Y494500D01*
X1300660Y496900D01*
X1295600Y498660D01*
X1290340Y499739D01*
X1285000Y500100D01*
X1279660Y499739D01*
X1274400Y498660D01*
X1269340Y496900D01*
X1264560Y494500D01*
X1260160Y491460D01*
X1256180Y487879D01*
X1252720Y483780D01*
X1249840Y479260D01*
X1247580Y474400D01*
X1246000Y469300D01*
X1245120Y464020D01*
X1244940Y458660D01*
X1245460Y453340D01*
X1246700Y448120D01*
X1248640Y443120D01*
X1251200Y438420D01*
X1254380Y434120D01*
X1258100Y430260D01*
X1262320Y426940D01*
X1266920Y424219D01*
X1271840Y422120D01*
X1277020Y420720D01*
G37*
G36*
X782320Y420000D02*
G01*
X787680Y420000D01*
X792980Y420720D01*
X798160Y422120D01*
X803080Y424219D01*
X807680Y426940D01*
X811900Y430260D01*
X815620Y434120D01*
X818800Y438420D01*
X821360Y443120D01*
X823300Y448120D01*
X824539Y453340D01*
X825060Y458660D01*
X824880Y464020D01*
X824000Y469300D01*
X822420Y474400D01*
X820160Y479260D01*
X817280Y483780D01*
X813820Y487879D01*
X809840Y491460D01*
X805440Y494500D01*
X800660Y496900D01*
X795600Y498660D01*
X790340Y499739D01*
X785000Y500100D01*
X779659Y499739D01*
X774400Y498660D01*
X769340Y496900D01*
X764560Y494500D01*
X760160Y491460D01*
X756180Y487879D01*
X752720Y483780D01*
X749840Y479260D01*
X747580Y474400D01*
X746000Y469300D01*
X745120Y464020D01*
X744940Y458660D01*
X745460Y453340D01*
X746700Y448120D01*
X748640Y443120D01*
X751200Y438420D01*
X754380Y434120D01*
X758100Y430260D01*
X762320Y426940D01*
X766919Y424219D01*
X771840Y422120D01*
X777020Y420720D01*
G37*
G36*
X1382320Y420000D02*
G01*
X1387680Y420000D01*
X1392980Y420720D01*
X1398160Y422120D01*
X1403080Y424219D01*
X1407680Y426940D01*
X1411900Y430260D01*
X1415620Y434120D01*
X1418800Y438420D01*
X1421360Y443120D01*
X1423300Y448120D01*
X1424540Y453340D01*
X1425060Y458660D01*
X1424880Y464020D01*
X1424000Y469300D01*
X1422420Y474400D01*
X1420160Y479260D01*
X1417280Y483780D01*
X1413820Y487879D01*
X1409840Y491460D01*
X1405440Y494500D01*
X1400660Y496900D01*
X1395600Y498660D01*
X1390340Y499739D01*
X1385000Y500100D01*
X1379660Y499739D01*
X1374400Y498660D01*
X1369340Y496900D01*
X1364560Y494500D01*
X1360160Y491460D01*
X1356180Y487879D01*
X1352720Y483780D01*
X1349840Y479260D01*
X1347580Y474400D01*
X1346000Y469300D01*
X1345120Y464020D01*
X1344940Y458660D01*
X1345460Y453340D01*
X1346699Y448120D01*
X1348640Y443120D01*
X1351200Y438420D01*
X1354379Y434120D01*
X1358100Y430260D01*
X1362320Y426940D01*
X1366920Y424219D01*
X1371840Y422120D01*
X1377020Y420720D01*
G37*
G36*
X682320Y420000D02*
G01*
X687680Y420000D01*
X692980Y420720D01*
X698160Y422120D01*
X703080Y424219D01*
X707680Y426940D01*
X711900Y430260D01*
X715620Y434120D01*
X718800Y438420D01*
X721360Y443120D01*
X723300Y448120D01*
X724539Y453340D01*
X725060Y458660D01*
X724880Y464020D01*
X724000Y469300D01*
X722420Y474400D01*
X720160Y479260D01*
X717280Y483780D01*
X713820Y487879D01*
X709840Y491460D01*
X705440Y494500D01*
X700660Y496900D01*
X695600Y498660D01*
X690340Y499739D01*
X685000Y500100D01*
X679659Y499739D01*
X674400Y498660D01*
X669340Y496900D01*
X664560Y494500D01*
X660160Y491460D01*
X656180Y487879D01*
X652720Y483780D01*
X649840Y479260D01*
X647580Y474400D01*
X646000Y469300D01*
X645120Y464020D01*
X644940Y458660D01*
X645460Y453340D01*
X646700Y448120D01*
X648640Y443120D01*
X651200Y438420D01*
X654380Y434120D01*
X658100Y430260D01*
X662320Y426940D01*
X666919Y424219D01*
X671840Y422120D01*
X677020Y420720D01*
G37*
G36*
X1482320Y420000D02*
G01*
X1487680Y420000D01*
X1492980Y420720D01*
X1498160Y422120D01*
X1503080Y424219D01*
X1507680Y426940D01*
X1511900Y430260D01*
X1515620Y434120D01*
X1518800Y438420D01*
X1521360Y443120D01*
X1523300Y448120D01*
X1524540Y453340D01*
X1525060Y458660D01*
X1524880Y464020D01*
X1524000Y469300D01*
X1522420Y474400D01*
X1520160Y479260D01*
X1517280Y483780D01*
X1513820Y487879D01*
X1509840Y491460D01*
X1505440Y494500D01*
X1500660Y496900D01*
X1495600Y498660D01*
X1490340Y499739D01*
X1485000Y500100D01*
X1479660Y499739D01*
X1474400Y498660D01*
X1469340Y496900D01*
X1464560Y494500D01*
X1460160Y491460D01*
X1456180Y487879D01*
X1452720Y483780D01*
X1449840Y479260D01*
X1447580Y474400D01*
X1446000Y469300D01*
X1445120Y464020D01*
X1444940Y458660D01*
X1445460Y453340D01*
X1446699Y448120D01*
X1448640Y443120D01*
X1451200Y438420D01*
X1454379Y434120D01*
X1458100Y430260D01*
X1462320Y426940D01*
X1466920Y424219D01*
X1471840Y422120D01*
X1477020Y420720D01*
G37*
G36*
X582320Y420000D02*
G01*
X587680Y420000D01*
X592980Y420720D01*
X598160Y422120D01*
X603080Y424219D01*
X607680Y426940D01*
X611900Y430260D01*
X615620Y434120D01*
X618800Y438420D01*
X621360Y443120D01*
X623300Y448120D01*
X624540Y453340D01*
X625060Y458660D01*
X624880Y464020D01*
X624000Y469300D01*
X622420Y474400D01*
X620160Y479260D01*
X617280Y483780D01*
X613820Y487879D01*
X609840Y491460D01*
X605440Y494500D01*
X600660Y496900D01*
X595600Y498660D01*
X590340Y499739D01*
X585000Y500100D01*
X579660Y499739D01*
X574400Y498660D01*
X569340Y496900D01*
X564560Y494500D01*
X560160Y491460D01*
X556180Y487879D01*
X552720Y483780D01*
X549840Y479260D01*
X547580Y474400D01*
X546000Y469300D01*
X545120Y464020D01*
X544940Y458660D01*
X545460Y453340D01*
X546700Y448120D01*
X548640Y443120D01*
X551200Y438420D01*
X554380Y434120D01*
X558100Y430260D01*
X562320Y426940D01*
X566920Y424219D01*
X571840Y422120D01*
X577020Y420720D01*
G37*
G36*
X1582320Y420000D02*
G01*
X1587680Y420000D01*
X1592980Y420720D01*
X1598160Y422120D01*
X1603080Y424219D01*
X1607680Y426940D01*
X1611900Y430260D01*
X1615620Y434120D01*
X1618800Y438420D01*
X1621360Y443120D01*
X1623300Y448120D01*
X1624540Y453340D01*
X1625060Y458660D01*
X1624880Y464020D01*
X1624000Y469300D01*
X1622420Y474400D01*
X1620160Y479260D01*
X1617280Y483780D01*
X1613820Y487879D01*
X1609840Y491460D01*
X1605440Y494500D01*
X1600660Y496900D01*
X1595600Y498660D01*
X1590340Y499739D01*
X1585000Y500100D01*
X1579660Y499739D01*
X1574400Y498660D01*
X1569340Y496900D01*
X1564560Y494500D01*
X1560160Y491460D01*
X1556180Y487879D01*
X1552720Y483780D01*
X1549840Y479260D01*
X1547580Y474400D01*
X1546000Y469300D01*
X1545120Y464020D01*
X1544940Y458660D01*
X1545460Y453340D01*
X1546699Y448120D01*
X1548640Y443120D01*
X1551200Y438420D01*
X1554379Y434120D01*
X1558100Y430260D01*
X1562320Y426940D01*
X1566920Y424219D01*
X1571840Y422120D01*
X1577020Y420720D01*
G37*
G36*
X482320Y420000D02*
G01*
X487680Y420000D01*
X492980Y420720D01*
X498160Y422120D01*
X503080Y424219D01*
X507680Y426940D01*
X511900Y430260D01*
X515620Y434120D01*
X518800Y438420D01*
X521360Y443120D01*
X523300Y448120D01*
X524540Y453340D01*
X525060Y458660D01*
X524880Y464020D01*
X524000Y469300D01*
X522420Y474400D01*
X520160Y479260D01*
X517280Y483780D01*
X513820Y487879D01*
X509840Y491460D01*
X505439Y494500D01*
X500660Y496900D01*
X495600Y498660D01*
X490340Y499739D01*
X485000Y500100D01*
X479660Y499739D01*
X474400Y498660D01*
X469340Y496900D01*
X464560Y494500D01*
X460160Y491460D01*
X456180Y487879D01*
X452720Y483780D01*
X449840Y479260D01*
X447580Y474400D01*
X446000Y469300D01*
X445120Y464020D01*
X444940Y458660D01*
X445460Y453340D01*
X446700Y448120D01*
X448640Y443120D01*
X451200Y438420D01*
X454380Y434120D01*
X458100Y430260D01*
X462320Y426940D01*
X466920Y424219D01*
X471840Y422120D01*
X477020Y420720D01*
G37*
G36*
X1882320Y420000D02*
G01*
X1887680Y420000D01*
X1892980Y420720D01*
X1898160Y422120D01*
X1903080Y424219D01*
X1907680Y426940D01*
X1911900Y430260D01*
X1915620Y434120D01*
X1918800Y438420D01*
X1921360Y443120D01*
X1923300Y448120D01*
X1924540Y453340D01*
X1925060Y458660D01*
X1924880Y464020D01*
X1924000Y469300D01*
X1922420Y474400D01*
X1920160Y479260D01*
X1917280Y483780D01*
X1913820Y487879D01*
X1909840Y491460D01*
X1905440Y494500D01*
X1900660Y496900D01*
X1895600Y498660D01*
X1890340Y499739D01*
X1885000Y500100D01*
X1879660Y499739D01*
X1874400Y498660D01*
X1869340Y496900D01*
X1864560Y494500D01*
X1860160Y491460D01*
X1856180Y487879D01*
X1852720Y483780D01*
X1849840Y479260D01*
X1847580Y474400D01*
X1846000Y469300D01*
X1845120Y464020D01*
X1844940Y458660D01*
X1845460Y453340D01*
X1846699Y448120D01*
X1848640Y443120D01*
X1851200Y438420D01*
X1854379Y434120D01*
X1858100Y430260D01*
X1862320Y426940D01*
X1866920Y424219D01*
X1871840Y422120D01*
X1877020Y420720D01*
G37*
G36*
X1682320Y420000D02*
G01*
X1687680Y420000D01*
X1692980Y420720D01*
X1698160Y422120D01*
X1703080Y424219D01*
X1707680Y426940D01*
X1711900Y430260D01*
X1715620Y434120D01*
X1718800Y438420D01*
X1721360Y443120D01*
X1723300Y448120D01*
X1724540Y453340D01*
X1725060Y458660D01*
X1724880Y464020D01*
X1724000Y469300D01*
X1722420Y474400D01*
X1720160Y479260D01*
X1717280Y483780D01*
X1713820Y487879D01*
X1709840Y491460D01*
X1705440Y494500D01*
X1700660Y496900D01*
X1695600Y498660D01*
X1690340Y499739D01*
X1685000Y500100D01*
X1679660Y499739D01*
X1674400Y498660D01*
X1669340Y496900D01*
X1664560Y494500D01*
X1660160Y491460D01*
X1656180Y487879D01*
X1652720Y483780D01*
X1649840Y479260D01*
X1647580Y474400D01*
X1646000Y469300D01*
X1645120Y464020D01*
X1644940Y458660D01*
X1645460Y453340D01*
X1646699Y448120D01*
X1648640Y443120D01*
X1651200Y438420D01*
X1654379Y434120D01*
X1658100Y430260D01*
X1662320Y426940D01*
X1666920Y424219D01*
X1671840Y422120D01*
X1677020Y420720D01*
G37*
G36*
X1782320Y420000D02*
G01*
X1787680Y420000D01*
X1792980Y420720D01*
X1798160Y422120D01*
X1803080Y424219D01*
X1807680Y426940D01*
X1811900Y430260D01*
X1815620Y434120D01*
X1818800Y438420D01*
X1821360Y443120D01*
X1823300Y448120D01*
X1824540Y453340D01*
X1825060Y458660D01*
X1824880Y464020D01*
X1824000Y469300D01*
X1822420Y474400D01*
X1820160Y479260D01*
X1817280Y483780D01*
X1813820Y487879D01*
X1809840Y491460D01*
X1805440Y494500D01*
X1800660Y496900D01*
X1795600Y498660D01*
X1790340Y499739D01*
X1785000Y500100D01*
X1779660Y499739D01*
X1774400Y498660D01*
X1769340Y496900D01*
X1764560Y494500D01*
X1760160Y491460D01*
X1756180Y487879D01*
X1752720Y483780D01*
X1749840Y479260D01*
X1747580Y474400D01*
X1746000Y469300D01*
X1745120Y464020D01*
X1744940Y458660D01*
X1745460Y453340D01*
X1746699Y448120D01*
X1748640Y443120D01*
X1751200Y438420D01*
X1754379Y434120D01*
X1758100Y430260D01*
X1762320Y426940D01*
X1766920Y424219D01*
X1771840Y422120D01*
X1777020Y420720D01*
G37*
G36*
X382320Y420000D02*
G01*
X387680Y420000D01*
X392980Y420720D01*
X398160Y422120D01*
X403080Y424219D01*
X407680Y426940D01*
X411900Y430260D01*
X415620Y434120D01*
X418800Y438420D01*
X421360Y443120D01*
X423300Y448120D01*
X424540Y453340D01*
X425060Y458660D01*
X424880Y464020D01*
X424000Y469300D01*
X422420Y474400D01*
X420160Y479260D01*
X417280Y483780D01*
X413820Y487879D01*
X409840Y491460D01*
X405439Y494500D01*
X400660Y496900D01*
X395600Y498660D01*
X390340Y499739D01*
X385000Y500100D01*
X379660Y499739D01*
X374400Y498660D01*
X369340Y496900D01*
X364560Y494500D01*
X360160Y491460D01*
X356180Y487879D01*
X352720Y483780D01*
X349840Y479260D01*
X347580Y474400D01*
X346000Y469300D01*
X345120Y464020D01*
X344940Y458660D01*
X345460Y453340D01*
X346700Y448120D01*
X348640Y443120D01*
X351200Y438420D01*
X354380Y434120D01*
X358100Y430260D01*
X362320Y426940D01*
X366920Y424219D01*
X371840Y422120D01*
X377020Y420720D01*
G37*
G36*
X282320Y420000D02*
G01*
X287680Y420000D01*
X292980Y420720D01*
X298160Y422120D01*
X303080Y424219D01*
X307680Y426940D01*
X311900Y430260D01*
X315620Y434120D01*
X318800Y438420D01*
X321360Y443120D01*
X323300Y448120D01*
X324540Y453340D01*
X325060Y458660D01*
X324880Y464020D01*
X324000Y469300D01*
X322420Y474400D01*
X320160Y479260D01*
X317280Y483780D01*
X313820Y487879D01*
X309840Y491460D01*
X305440Y494500D01*
X300660Y496900D01*
X295600Y498660D01*
X290340Y499739D01*
X285000Y500100D01*
X279660Y499739D01*
X274400Y498660D01*
X269340Y496900D01*
X264560Y494500D01*
X260159Y491460D01*
X256180Y487879D01*
X252719Y483780D01*
X249840Y479260D01*
X247580Y474400D01*
X246000Y469300D01*
X245120Y464020D01*
X244940Y458660D01*
X245460Y453340D01*
X246700Y448120D01*
X248640Y443120D01*
X251200Y438420D01*
X254380Y434120D01*
X258100Y430260D01*
X262320Y426940D01*
X266920Y424219D01*
X271840Y422120D01*
X277020Y420720D01*
G37*
G36*
X182320Y420000D02*
G01*
X187680Y420000D01*
X192979Y420720D01*
X198160Y422120D01*
X203080Y424219D01*
X207680Y426940D01*
X211900Y430260D01*
X215620Y434120D01*
X218800Y438420D01*
X221360Y443120D01*
X223299Y448120D01*
X224540Y453340D01*
X225060Y458660D01*
X224880Y464020D01*
X224000Y469300D01*
X222420Y474400D01*
X220159Y479260D01*
X217280Y483780D01*
X213820Y487879D01*
X209840Y491460D01*
X205440Y494500D01*
X200660Y496900D01*
X195600Y498660D01*
X190340Y499739D01*
X185000Y500100D01*
X179660Y499739D01*
X174400Y498660D01*
X169340Y496900D01*
X164560Y494500D01*
X160159Y491460D01*
X156180Y487879D01*
X152720Y483780D01*
X149840Y479260D01*
X147580Y474400D01*
X146000Y469300D01*
X145120Y464020D01*
X144940Y458660D01*
X145460Y453340D01*
X146700Y448120D01*
X148640Y443120D01*
X151200Y438420D01*
X154380Y434120D01*
X158100Y430260D01*
X162320Y426940D01*
X166920Y424219D01*
X171840Y422120D01*
X177020Y420720D01*
G37*
G36*
X1182320Y1220000D02*
G01*
X1187680Y1220000D01*
X1192980Y1220720D01*
X1198160Y1222120D01*
X1203080Y1224220D01*
X1207680Y1226940D01*
X1211900Y1230260D01*
X1215620Y1234120D01*
X1218800Y1238420D01*
X1221360Y1243120D01*
X1223300Y1248120D01*
X1224540Y1253340D01*
X1225060Y1258660D01*
X1224880Y1264020D01*
X1224000Y1269300D01*
X1222420Y1274400D01*
X1220160Y1279260D01*
X1217280Y1283779D01*
X1213820Y1287880D01*
X1209840Y1291459D01*
X1205440Y1294500D01*
X1200660Y1296900D01*
X1195600Y1298660D01*
X1190340Y1299740D01*
X1185000Y1300100D01*
X1179660Y1299740D01*
X1174400Y1298660D01*
X1169340Y1296900D01*
X1164560Y1294500D01*
X1160160Y1291459D01*
X1156180Y1287880D01*
X1152720Y1283779D01*
X1149840Y1279260D01*
X1147580Y1274400D01*
X1146000Y1269300D01*
X1145120Y1264020D01*
X1144940Y1258660D01*
X1145460Y1253340D01*
X1146700Y1248120D01*
X1148640Y1243120D01*
X1151200Y1238420D01*
X1154380Y1234120D01*
X1158100Y1230260D01*
X1162320Y1226940D01*
X1166920Y1224220D01*
X1171840Y1222120D01*
X1177020Y1220720D01*
G37*
G36*
X1082320Y1220000D02*
G01*
X1087680Y1220000D01*
X1092980Y1220720D01*
X1098160Y1222120D01*
X1103080Y1224220D01*
X1107680Y1226940D01*
X1111900Y1230260D01*
X1115620Y1234120D01*
X1118800Y1238420D01*
X1121360Y1243120D01*
X1123300Y1248120D01*
X1124540Y1253340D01*
X1125060Y1258660D01*
X1124880Y1264020D01*
X1124000Y1269300D01*
X1122420Y1274400D01*
X1120160Y1279260D01*
X1117280Y1283779D01*
X1113820Y1287880D01*
X1109840Y1291459D01*
X1105440Y1294500D01*
X1100660Y1296900D01*
X1095600Y1298660D01*
X1090340Y1299740D01*
X1085000Y1300100D01*
X1079660Y1299740D01*
X1074400Y1298660D01*
X1069340Y1296900D01*
X1064560Y1294500D01*
X1060160Y1291459D01*
X1056180Y1287880D01*
X1052720Y1283779D01*
X1049840Y1279260D01*
X1047580Y1274400D01*
X1046000Y1269300D01*
X1045120Y1264020D01*
X1044940Y1258660D01*
X1045460Y1253340D01*
X1046700Y1248120D01*
X1048640Y1243120D01*
X1051200Y1238420D01*
X1054380Y1234120D01*
X1058100Y1230260D01*
X1062320Y1226940D01*
X1066920Y1224220D01*
X1071840Y1222120D01*
X1077020Y1220720D01*
G37*
G36*
X1282320Y1220000D02*
G01*
X1287680Y1220000D01*
X1292980Y1220720D01*
X1298160Y1222120D01*
X1303080Y1224220D01*
X1307680Y1226940D01*
X1311900Y1230260D01*
X1315620Y1234120D01*
X1318800Y1238420D01*
X1321360Y1243120D01*
X1323300Y1248120D01*
X1324540Y1253340D01*
X1325060Y1258660D01*
X1324880Y1264020D01*
X1324000Y1269300D01*
X1322420Y1274400D01*
X1320160Y1279260D01*
X1317280Y1283779D01*
X1313820Y1287880D01*
X1309840Y1291459D01*
X1305440Y1294500D01*
X1300660Y1296900D01*
X1295600Y1298660D01*
X1290340Y1299740D01*
X1285000Y1300100D01*
X1279660Y1299740D01*
X1274400Y1298660D01*
X1269340Y1296900D01*
X1264560Y1294500D01*
X1260160Y1291459D01*
X1256180Y1287880D01*
X1252720Y1283779D01*
X1249840Y1279260D01*
X1247580Y1274400D01*
X1246000Y1269300D01*
X1245120Y1264020D01*
X1244940Y1258660D01*
X1245460Y1253340D01*
X1246700Y1248120D01*
X1248640Y1243120D01*
X1251200Y1238420D01*
X1254380Y1234120D01*
X1258100Y1230260D01*
X1262320Y1226940D01*
X1266920Y1224220D01*
X1271840Y1222120D01*
X1277020Y1220720D01*
G37*
G36*
X982320Y1220000D02*
G01*
X987680Y1220000D01*
X992980Y1220720D01*
X998160Y1222120D01*
X1003080Y1224220D01*
X1007680Y1226940D01*
X1011900Y1230260D01*
X1015620Y1234120D01*
X1018800Y1238420D01*
X1021360Y1243120D01*
X1023300Y1248120D01*
X1024539Y1253340D01*
X1025060Y1258660D01*
X1024880Y1264020D01*
X1024000Y1269300D01*
X1022420Y1274400D01*
X1020160Y1279260D01*
X1017280Y1283779D01*
X1013820Y1287880D01*
X1009840Y1291459D01*
X1005440Y1294500D01*
X1000660Y1296900D01*
X995600Y1298660D01*
X990340Y1299740D01*
X985000Y1300100D01*
X979659Y1299740D01*
X974400Y1298660D01*
X969340Y1296900D01*
X964560Y1294500D01*
X960160Y1291459D01*
X956180Y1287880D01*
X952720Y1283779D01*
X949840Y1279260D01*
X947580Y1274400D01*
X946000Y1269300D01*
X945120Y1264020D01*
X944940Y1258660D01*
X945460Y1253340D01*
X946700Y1248120D01*
X948640Y1243120D01*
X951200Y1238420D01*
X954380Y1234120D01*
X958100Y1230260D01*
X962320Y1226940D01*
X966919Y1224220D01*
X971840Y1222120D01*
X977020Y1220720D01*
G37*
G36*
X1382320Y1220000D02*
G01*
X1387680Y1220000D01*
X1392980Y1220720D01*
X1398160Y1222120D01*
X1403080Y1224220D01*
X1407680Y1226940D01*
X1411900Y1230260D01*
X1415620Y1234120D01*
X1418800Y1238420D01*
X1421360Y1243120D01*
X1423300Y1248120D01*
X1424540Y1253340D01*
X1425060Y1258660D01*
X1424880Y1264020D01*
X1424000Y1269300D01*
X1422420Y1274400D01*
X1420160Y1279260D01*
X1417280Y1283779D01*
X1413820Y1287880D01*
X1409840Y1291459D01*
X1405440Y1294500D01*
X1400660Y1296900D01*
X1395600Y1298660D01*
X1390340Y1299740D01*
X1385000Y1300100D01*
X1379660Y1299740D01*
X1374400Y1298660D01*
X1369340Y1296900D01*
X1364560Y1294500D01*
X1360160Y1291459D01*
X1356180Y1287880D01*
X1352720Y1283779D01*
X1349840Y1279260D01*
X1347580Y1274400D01*
X1346000Y1269300D01*
X1345120Y1264020D01*
X1344940Y1258660D01*
X1345460Y1253340D01*
X1346699Y1248120D01*
X1348640Y1243120D01*
X1351200Y1238420D01*
X1354379Y1234120D01*
X1358100Y1230260D01*
X1362320Y1226940D01*
X1366920Y1224220D01*
X1371840Y1222120D01*
X1377020Y1220720D01*
G37*
G36*
X882320Y1220000D02*
G01*
X887680Y1220000D01*
X892980Y1220720D01*
X898160Y1222120D01*
X903080Y1224220D01*
X907680Y1226940D01*
X911900Y1230260D01*
X915620Y1234120D01*
X918800Y1238420D01*
X921360Y1243120D01*
X923300Y1248120D01*
X924539Y1253340D01*
X925060Y1258660D01*
X924880Y1264020D01*
X924000Y1269300D01*
X922420Y1274400D01*
X920160Y1279260D01*
X917280Y1283779D01*
X913820Y1287880D01*
X909840Y1291459D01*
X905440Y1294500D01*
X900660Y1296900D01*
X895600Y1298660D01*
X890340Y1299740D01*
X885000Y1300100D01*
X879659Y1299740D01*
X874400Y1298660D01*
X869340Y1296900D01*
X864560Y1294500D01*
X860160Y1291459D01*
X856180Y1287880D01*
X852720Y1283779D01*
X849840Y1279260D01*
X847580Y1274400D01*
X846000Y1269300D01*
X845120Y1264020D01*
X844940Y1258660D01*
X845460Y1253340D01*
X846700Y1248120D01*
X848640Y1243120D01*
X851200Y1238420D01*
X854380Y1234120D01*
X858100Y1230260D01*
X862320Y1226940D01*
X866919Y1224220D01*
X871840Y1222120D01*
X877020Y1220720D01*
G37*
G36*
X1482320Y1220000D02*
G01*
X1487680Y1220000D01*
X1492980Y1220720D01*
X1498160Y1222120D01*
X1503080Y1224220D01*
X1507680Y1226940D01*
X1511900Y1230260D01*
X1515620Y1234120D01*
X1518800Y1238420D01*
X1521360Y1243120D01*
X1523300Y1248120D01*
X1524540Y1253340D01*
X1525060Y1258660D01*
X1524880Y1264020D01*
X1524000Y1269300D01*
X1522420Y1274400D01*
X1520160Y1279260D01*
X1517280Y1283779D01*
X1513820Y1287880D01*
X1509840Y1291459D01*
X1505440Y1294500D01*
X1500660Y1296900D01*
X1495600Y1298660D01*
X1490340Y1299740D01*
X1485000Y1300100D01*
X1479660Y1299740D01*
X1474400Y1298660D01*
X1469340Y1296900D01*
X1464560Y1294500D01*
X1460160Y1291459D01*
X1456180Y1287880D01*
X1452720Y1283779D01*
X1449840Y1279260D01*
X1447580Y1274400D01*
X1446000Y1269300D01*
X1445120Y1264020D01*
X1444940Y1258660D01*
X1445460Y1253340D01*
X1446699Y1248120D01*
X1448640Y1243120D01*
X1451200Y1238420D01*
X1454379Y1234120D01*
X1458100Y1230260D01*
X1462320Y1226940D01*
X1466920Y1224220D01*
X1471840Y1222120D01*
X1477020Y1220720D01*
G37*
G36*
X782320Y1220000D02*
G01*
X787680Y1220000D01*
X792980Y1220720D01*
X798160Y1222120D01*
X803080Y1224220D01*
X807680Y1226940D01*
X811900Y1230260D01*
X815620Y1234120D01*
X818800Y1238420D01*
X821360Y1243120D01*
X823300Y1248120D01*
X824539Y1253340D01*
X825060Y1258660D01*
X824880Y1264020D01*
X824000Y1269300D01*
X822420Y1274400D01*
X820160Y1279260D01*
X817280Y1283779D01*
X813820Y1287880D01*
X809840Y1291459D01*
X805440Y1294500D01*
X800660Y1296900D01*
X795600Y1298660D01*
X790340Y1299740D01*
X785000Y1300100D01*
X779659Y1299740D01*
X774400Y1298660D01*
X769340Y1296900D01*
X764560Y1294500D01*
X760160Y1291459D01*
X756180Y1287880D01*
X752720Y1283779D01*
X749840Y1279260D01*
X747580Y1274400D01*
X746000Y1269300D01*
X745120Y1264020D01*
X744940Y1258660D01*
X745460Y1253340D01*
X746700Y1248120D01*
X748640Y1243120D01*
X751200Y1238420D01*
X754380Y1234120D01*
X758100Y1230260D01*
X762320Y1226940D01*
X766919Y1224220D01*
X771840Y1222120D01*
X777020Y1220720D01*
G37*
G36*
X1582320Y1220000D02*
G01*
X1587680Y1220000D01*
X1592980Y1220720D01*
X1598160Y1222120D01*
X1603080Y1224220D01*
X1607680Y1226940D01*
X1611900Y1230260D01*
X1615620Y1234120D01*
X1618800Y1238420D01*
X1621360Y1243120D01*
X1623300Y1248120D01*
X1624540Y1253340D01*
X1625060Y1258660D01*
X1624880Y1264020D01*
X1624000Y1269300D01*
X1622420Y1274400D01*
X1620160Y1279260D01*
X1617280Y1283779D01*
X1613820Y1287880D01*
X1609840Y1291459D01*
X1605440Y1294500D01*
X1600660Y1296900D01*
X1595600Y1298660D01*
X1590340Y1299740D01*
X1585000Y1300100D01*
X1579660Y1299740D01*
X1574400Y1298660D01*
X1569340Y1296900D01*
X1564560Y1294500D01*
X1560160Y1291459D01*
X1556180Y1287880D01*
X1552720Y1283779D01*
X1549840Y1279260D01*
X1547580Y1274400D01*
X1546000Y1269300D01*
X1545120Y1264020D01*
X1544940Y1258660D01*
X1545460Y1253340D01*
X1546699Y1248120D01*
X1548640Y1243120D01*
X1551200Y1238420D01*
X1554379Y1234120D01*
X1558100Y1230260D01*
X1562320Y1226940D01*
X1566920Y1224220D01*
X1571840Y1222120D01*
X1577020Y1220720D01*
G37*
G36*
X682320Y1220000D02*
G01*
X687680Y1220000D01*
X692980Y1220720D01*
X698160Y1222120D01*
X703080Y1224220D01*
X707680Y1226940D01*
X711900Y1230260D01*
X715620Y1234120D01*
X718800Y1238420D01*
X721360Y1243120D01*
X723300Y1248120D01*
X724539Y1253340D01*
X725060Y1258660D01*
X724880Y1264020D01*
X724000Y1269300D01*
X722420Y1274400D01*
X720160Y1279260D01*
X717280Y1283779D01*
X713820Y1287880D01*
X709840Y1291459D01*
X705440Y1294500D01*
X700660Y1296900D01*
X695600Y1298660D01*
X690340Y1299740D01*
X685000Y1300100D01*
X679659Y1299740D01*
X674400Y1298660D01*
X669340Y1296900D01*
X664560Y1294500D01*
X660160Y1291459D01*
X656180Y1287880D01*
X652720Y1283779D01*
X649840Y1279260D01*
X647580Y1274400D01*
X646000Y1269300D01*
X645120Y1264020D01*
X644940Y1258660D01*
X645460Y1253340D01*
X646700Y1248120D01*
X648640Y1243120D01*
X651200Y1238420D01*
X654380Y1234120D01*
X658100Y1230260D01*
X662320Y1226940D01*
X666919Y1224220D01*
X671840Y1222120D01*
X677020Y1220720D01*
G37*
G36*
X1682320Y1220000D02*
G01*
X1687680Y1220000D01*
X1692980Y1220720D01*
X1698160Y1222120D01*
X1703080Y1224220D01*
X1707680Y1226940D01*
X1711900Y1230260D01*
X1715620Y1234120D01*
X1718800Y1238420D01*
X1721360Y1243120D01*
X1723300Y1248120D01*
X1724540Y1253340D01*
X1725060Y1258660D01*
X1724880Y1264020D01*
X1724000Y1269300D01*
X1722420Y1274400D01*
X1720160Y1279260D01*
X1717280Y1283779D01*
X1713820Y1287880D01*
X1709840Y1291459D01*
X1705440Y1294500D01*
X1700660Y1296900D01*
X1695600Y1298660D01*
X1690340Y1299740D01*
X1685000Y1300100D01*
X1679660Y1299740D01*
X1674400Y1298660D01*
X1669340Y1296900D01*
X1664560Y1294500D01*
X1660160Y1291459D01*
X1656180Y1287880D01*
X1652720Y1283779D01*
X1649840Y1279260D01*
X1647580Y1274400D01*
X1646000Y1269300D01*
X1645120Y1264020D01*
X1644940Y1258660D01*
X1645460Y1253340D01*
X1646699Y1248120D01*
X1648640Y1243120D01*
X1651200Y1238420D01*
X1654379Y1234120D01*
X1658100Y1230260D01*
X1662320Y1226940D01*
X1666920Y1224220D01*
X1671840Y1222120D01*
X1677020Y1220720D01*
G37*
G36*
X582320Y1220000D02*
G01*
X587680Y1220000D01*
X592980Y1220720D01*
X598160Y1222120D01*
X603080Y1224220D01*
X607680Y1226940D01*
X611900Y1230260D01*
X615620Y1234120D01*
X618800Y1238420D01*
X621360Y1243120D01*
X623300Y1248120D01*
X624540Y1253340D01*
X625060Y1258660D01*
X624880Y1264020D01*
X624000Y1269300D01*
X622420Y1274400D01*
X620160Y1279260D01*
X617280Y1283779D01*
X613820Y1287880D01*
X609840Y1291459D01*
X605440Y1294500D01*
X600660Y1296900D01*
X595600Y1298660D01*
X590340Y1299740D01*
X585000Y1300100D01*
X579660Y1299740D01*
X574400Y1298660D01*
X569340Y1296900D01*
X564560Y1294500D01*
X560160Y1291459D01*
X556180Y1287880D01*
X552720Y1283779D01*
X549840Y1279260D01*
X547580Y1274400D01*
X546000Y1269300D01*
X545120Y1264020D01*
X544940Y1258660D01*
X545460Y1253340D01*
X546700Y1248120D01*
X548640Y1243120D01*
X551200Y1238420D01*
X554380Y1234120D01*
X558100Y1230260D01*
X562320Y1226940D01*
X566920Y1224220D01*
X571840Y1222120D01*
X577020Y1220720D01*
G37*
G36*
X1882320Y1220000D02*
G01*
X1887680Y1220000D01*
X1892980Y1220720D01*
X1898160Y1222120D01*
X1903080Y1224220D01*
X1907680Y1226940D01*
X1911900Y1230260D01*
X1915620Y1234120D01*
X1918800Y1238420D01*
X1921360Y1243120D01*
X1923300Y1248120D01*
X1924540Y1253340D01*
X1925060Y1258660D01*
X1924880Y1264020D01*
X1924000Y1269300D01*
X1922420Y1274400D01*
X1920160Y1279260D01*
X1917280Y1283779D01*
X1913820Y1287880D01*
X1909840Y1291459D01*
X1905440Y1294500D01*
X1900660Y1296900D01*
X1895600Y1298660D01*
X1890340Y1299740D01*
X1885000Y1300100D01*
X1879660Y1299740D01*
X1874400Y1298660D01*
X1869340Y1296900D01*
X1864560Y1294500D01*
X1860160Y1291459D01*
X1856180Y1287880D01*
X1852720Y1283779D01*
X1849840Y1279260D01*
X1847580Y1274400D01*
X1846000Y1269300D01*
X1845120Y1264020D01*
X1844940Y1258660D01*
X1845460Y1253340D01*
X1846699Y1248120D01*
X1848640Y1243120D01*
X1851200Y1238420D01*
X1854379Y1234120D01*
X1858100Y1230260D01*
X1862320Y1226940D01*
X1866920Y1224220D01*
X1871840Y1222120D01*
X1877020Y1220720D01*
G37*
G36*
X1782320Y1220000D02*
G01*
X1787680Y1220000D01*
X1792980Y1220720D01*
X1798160Y1222120D01*
X1803080Y1224220D01*
X1807680Y1226940D01*
X1811900Y1230260D01*
X1815620Y1234120D01*
X1818800Y1238420D01*
X1821360Y1243120D01*
X1823300Y1248120D01*
X1824540Y1253340D01*
X1825060Y1258660D01*
X1824880Y1264020D01*
X1824000Y1269300D01*
X1822420Y1274400D01*
X1820160Y1279260D01*
X1817280Y1283779D01*
X1813820Y1287880D01*
X1809840Y1291459D01*
X1805440Y1294500D01*
X1800660Y1296900D01*
X1795600Y1298660D01*
X1790340Y1299740D01*
X1785000Y1300100D01*
X1779660Y1299740D01*
X1774400Y1298660D01*
X1769340Y1296900D01*
X1764560Y1294500D01*
X1760160Y1291459D01*
X1756180Y1287880D01*
X1752720Y1283779D01*
X1749840Y1279260D01*
X1747580Y1274400D01*
X1746000Y1269300D01*
X1745120Y1264020D01*
X1744940Y1258660D01*
X1745460Y1253340D01*
X1746699Y1248120D01*
X1748640Y1243120D01*
X1751200Y1238420D01*
X1754379Y1234120D01*
X1758100Y1230260D01*
X1762320Y1226940D01*
X1766920Y1224220D01*
X1771840Y1222120D01*
X1777020Y1220720D01*
G37*
G36*
X1982320Y1220000D02*
G01*
X1987680Y1220000D01*
X1992980Y1220720D01*
X1998160Y1222120D01*
X2003080Y1224220D01*
X2007680Y1226940D01*
X2011900Y1230260D01*
X2015620Y1234120D01*
X2018800Y1238420D01*
X2021360Y1243120D01*
X2023300Y1248120D01*
X2024540Y1253340D01*
X2025060Y1258660D01*
X2024880Y1264020D01*
X2024000Y1269300D01*
X2022420Y1274400D01*
X2020160Y1279260D01*
X2017280Y1283779D01*
X2013820Y1287880D01*
X2009840Y1291459D01*
X2005440Y1294500D01*
X2000660Y1296900D01*
X1995600Y1298660D01*
X1990340Y1299740D01*
X1985000Y1300100D01*
X1979660Y1299740D01*
X1974400Y1298660D01*
X1969340Y1296900D01*
X1964560Y1294500D01*
X1960160Y1291459D01*
X1956180Y1287880D01*
X1952720Y1283779D01*
X1949840Y1279260D01*
X1947580Y1274400D01*
X1946000Y1269300D01*
X1945120Y1264020D01*
X1944940Y1258660D01*
X1945460Y1253340D01*
X1946699Y1248120D01*
X1948640Y1243120D01*
X1951200Y1238420D01*
X1954379Y1234120D01*
X1958100Y1230260D01*
X1962320Y1226940D01*
X1966920Y1224220D01*
X1971840Y1222120D01*
X1977020Y1220720D01*
G37*
G36*
X482320Y1220000D02*
G01*
X487680Y1220000D01*
X492980Y1220720D01*
X498160Y1222120D01*
X503080Y1224220D01*
X507680Y1226940D01*
X511900Y1230260D01*
X515620Y1234120D01*
X518800Y1238420D01*
X521360Y1243120D01*
X523300Y1248120D01*
X524540Y1253340D01*
X525060Y1258660D01*
X524880Y1264020D01*
X524000Y1269300D01*
X522420Y1274400D01*
X520160Y1279260D01*
X517280Y1283779D01*
X513820Y1287880D01*
X509840Y1291459D01*
X505439Y1294500D01*
X500660Y1296900D01*
X495600Y1298660D01*
X490340Y1299740D01*
X485000Y1300100D01*
X479660Y1299740D01*
X474400Y1298660D01*
X469340Y1296900D01*
X464560Y1294500D01*
X460160Y1291459D01*
X456180Y1287880D01*
X452720Y1283779D01*
X449840Y1279260D01*
X447580Y1274400D01*
X446000Y1269300D01*
X445120Y1264020D01*
X444940Y1258660D01*
X445460Y1253340D01*
X446700Y1248120D01*
X448640Y1243120D01*
X451200Y1238420D01*
X454380Y1234120D01*
X458100Y1230260D01*
X462320Y1226940D01*
X466920Y1224220D01*
X471840Y1222120D01*
X477020Y1220720D01*
G37*
G36*
X382320Y1220000D02*
G01*
X387680Y1220000D01*
X392980Y1220720D01*
X398160Y1222120D01*
X403080Y1224220D01*
X407680Y1226940D01*
X411900Y1230260D01*
X415620Y1234120D01*
X418800Y1238420D01*
X421360Y1243120D01*
X423300Y1248120D01*
X424540Y1253340D01*
X425060Y1258660D01*
X424880Y1264020D01*
X424000Y1269300D01*
X422420Y1274400D01*
X420160Y1279260D01*
X417280Y1283779D01*
X413820Y1287880D01*
X409840Y1291459D01*
X405439Y1294500D01*
X400660Y1296900D01*
X395600Y1298660D01*
X390340Y1299740D01*
X385000Y1300100D01*
X379660Y1299740D01*
X374400Y1298660D01*
X369340Y1296900D01*
X364560Y1294500D01*
X360160Y1291459D01*
X356180Y1287880D01*
X352720Y1283779D01*
X349840Y1279260D01*
X347580Y1274400D01*
X346000Y1269300D01*
X345120Y1264020D01*
X344940Y1258660D01*
X345460Y1253340D01*
X346700Y1248120D01*
X348640Y1243120D01*
X351200Y1238420D01*
X354380Y1234120D01*
X358100Y1230260D01*
X362320Y1226940D01*
X366920Y1224220D01*
X371840Y1222120D01*
X377020Y1220720D01*
G37*
G36*
X282320Y1220000D02*
G01*
X287680Y1220000D01*
X292980Y1220720D01*
X298160Y1222120D01*
X303080Y1224220D01*
X307680Y1226940D01*
X311900Y1230260D01*
X315620Y1234120D01*
X318800Y1238420D01*
X321360Y1243120D01*
X323300Y1248120D01*
X324540Y1253340D01*
X325060Y1258660D01*
X324880Y1264020D01*
X324000Y1269300D01*
X322420Y1274400D01*
X320160Y1279260D01*
X317280Y1283779D01*
X313820Y1287880D01*
X309840Y1291459D01*
X305440Y1294500D01*
X300660Y1296900D01*
X295600Y1298660D01*
X290340Y1299740D01*
X285000Y1300100D01*
X279660Y1299740D01*
X274400Y1298660D01*
X269340Y1296900D01*
X264560Y1294500D01*
X260159Y1291459D01*
X256180Y1287880D01*
X252719Y1283779D01*
X249840Y1279260D01*
X247580Y1274400D01*
X246000Y1269300D01*
X245120Y1264020D01*
X244940Y1258660D01*
X245460Y1253340D01*
X246700Y1248120D01*
X248640Y1243120D01*
X251200Y1238420D01*
X254380Y1234120D01*
X258100Y1230260D01*
X262320Y1226940D01*
X266920Y1224220D01*
X271840Y1222120D01*
X277020Y1220720D01*
G37*
G36*
X167500Y1223980D02*
G01*
X167500Y1242500D01*
X148980Y1242500D01*
X151200Y1238420D01*
X154380Y1234120D01*
X158100Y1230260D01*
X162320Y1226940D01*
X166920Y1224220D01*
G37*
G36*
X202500Y1223980D02*
G01*
X203080Y1224220D01*
X207680Y1226940D01*
X211900Y1230260D01*
X215620Y1234120D01*
X218800Y1238420D01*
X221020Y1242500D01*
X202500Y1242500D01*
G37*
G36*
X202500Y1277500D02*
G01*
X220980Y1277500D01*
X220159Y1279260D01*
X217280Y1283779D01*
X213820Y1287880D01*
X209840Y1291459D01*
X205440Y1294500D01*
X202500Y1295980D01*
G37*
G36*
X149020Y1277500D02*
G01*
X167500Y1277500D01*
X167500Y1295980D01*
X164560Y1294500D01*
X160159Y1291459D01*
X156180Y1287880D01*
X152720Y1283779D01*
X149840Y1279260D01*
G37*
G36*
X80000Y1389900D02*
G01*
X86039Y1390280D01*
X91980Y1391360D01*
X97760Y1393160D01*
X103280Y1395640D01*
X108460Y1398779D01*
X113219Y1402500D01*
X117500Y1406780D01*
X121220Y1411540D01*
X124360Y1416720D01*
X126840Y1422240D01*
X128640Y1428020D01*
X129720Y1433959D01*
X130100Y1440000D01*
X129720Y1446040D01*
X128640Y1451980D01*
X126840Y1457760D01*
X124360Y1463280D01*
X121220Y1468460D01*
X117500Y1473220D01*
X113219Y1477500D01*
X108460Y1481220D01*
X103280Y1484360D01*
X97760Y1486840D01*
X91980Y1488640D01*
X86039Y1489720D01*
X80000Y1490100D01*
X73960Y1489720D01*
X68020Y1488640D01*
X62240Y1486840D01*
X56720Y1484360D01*
X51540Y1481220D01*
X46780Y1477500D01*
X42500Y1473220D01*
X38780Y1468460D01*
X35640Y1463280D01*
X33160Y1457760D01*
X31360Y1451980D01*
X30280Y1446040D01*
X29900Y1440000D01*
X30280Y1433959D01*
X31360Y1428020D01*
X33160Y1422240D01*
X35640Y1416720D01*
X38780Y1411540D01*
X42500Y1406780D01*
X46780Y1402500D01*
X51540Y1398779D01*
X56720Y1395640D01*
X62240Y1393160D01*
X68020Y1391360D01*
X73960Y1390280D01*
G37*
G36*
X2080000Y1389900D02*
G01*
X2086040Y1390280D01*
X2091980Y1391360D01*
X2097760Y1393160D01*
X2103280Y1395640D01*
X2108460Y1398779D01*
X2113220Y1402500D01*
X2117500Y1406780D01*
X2121220Y1411540D01*
X2124360Y1416720D01*
X2126840Y1422240D01*
X2128640Y1428020D01*
X2129720Y1433959D01*
X2130100Y1440000D01*
X2129720Y1446040D01*
X2128640Y1451980D01*
X2126840Y1457760D01*
X2124360Y1463280D01*
X2121220Y1468460D01*
X2117500Y1473220D01*
X2113220Y1477500D01*
X2108460Y1481220D01*
X2103280Y1484360D01*
X2097760Y1486840D01*
X2091980Y1488640D01*
X2086040Y1489720D01*
X2080000Y1490100D01*
X2073959Y1489720D01*
X2068020Y1488640D01*
X2062240Y1486840D01*
X2056720Y1484360D01*
X2051540Y1481220D01*
X2046780Y1477500D01*
X2042500Y1473220D01*
X2038779Y1468460D01*
X2035640Y1463280D01*
X2033160Y1457760D01*
X2031360Y1451980D01*
X2030280Y1446040D01*
X2029900Y1440000D01*
X2030280Y1433959D01*
X2031360Y1428020D01*
X2033160Y1422240D01*
X2035640Y1416720D01*
X2038779Y1411540D01*
X2042500Y1406780D01*
X2046780Y1402500D01*
X2051540Y1398779D01*
X2056720Y1395640D01*
X2062240Y1393160D01*
X2068020Y1391360D01*
X2073959Y1390280D01*
G37*

%LPD*%
D11*
X330000Y155000D02*
G01*
X372399Y112600D01*
X707600Y112600D01*
X745000Y150000D01*
X1985000Y460000D02*
G01*
X1675000Y150000D01*
X845000Y150000D01*
D12*
G01*
X845000Y150000D03*
G01*
X745000Y150000D03*
G01*
X430000Y155000D03*
G01*
X330000Y155000D03*
G01*
X185000Y460000D03*
G01*
X285000Y460000D03*
G01*
X385000Y460000D03*
G01*
X485000Y460000D03*
G01*
X585000Y460000D03*
G01*
X685000Y460000D03*
G01*
X785000Y460000D03*
G01*
X885000Y460000D03*
G01*
X985000Y460000D03*
G01*
X1085000Y460000D03*
G01*
X1185000Y460000D03*
G01*
X1285000Y460000D03*
G01*
X1385000Y460000D03*
G01*
X1485000Y460000D03*
G01*
X1585000Y460000D03*
G01*
X1685000Y460000D03*
G01*
X1785000Y460000D03*
G01*
X1885000Y460000D03*
G01*
X1985000Y460000D03*
G01*
X1985000Y1260000D03*
G01*
X1885000Y1260000D03*
G01*
X1785000Y1260000D03*
G01*
X1685000Y1260000D03*
G01*
X1585000Y1260000D03*
G01*
X1485000Y1260000D03*
G01*
X1385000Y1260000D03*
G01*
X1285000Y1260000D03*
G01*
X1185000Y1260000D03*
G01*
X1085000Y1260000D03*
G01*
X985000Y1260000D03*
G01*
X885000Y1260000D03*
G01*
X785000Y1260000D03*
G01*
X685000Y1260000D03*
G01*
X585000Y1260000D03*
G01*
X485000Y1260000D03*
G01*
X385000Y1260000D03*
G01*
X285000Y1260000D03*
G01*
X185000Y1260000D03*
M02*
