M48
INCH,LZ
;FILE_FORMAT=2:4
;TYPE=PLATED
;Layer: Drill PTH
;EasyEDA v6.4.17, 2021-02-24T11:03:34+07:00
;ef73d0174efa4e16a56b608a547b3d4a,ed1066999ab64682bb259e5b7afb0417,10
;Gerber Generator version 0.2
;Holesize 1 = 0.0360 inch
T01C0.0360
%
G05
G90
T01
X008450Y001500
X007450Y001500
X004300Y001550
X003300Y001550
X001850Y004600
X002850Y004600
X003850Y004600
X004850Y004600
X005850Y004600
X006850Y004600
X007850Y004600
X008850Y004600
X009850Y004600
X010850Y004600
X011850Y004600
X012850Y004600
X013850Y004600
X014850Y004600
X015850Y004600
X016850Y004600
X017850Y004600
X018850Y004600
X019850Y004600
X019850Y012600
X018850Y012600
X017850Y012600
X016850Y012600
X015850Y012600
X014850Y012600
X013850Y012600
X012850Y012600
X011850Y012600
X010850Y012600
X009850Y012600
X008850Y012600
X007850Y012600
X006850Y012600
X005850Y012600
X004850Y012600
X003850Y012600
X002850Y012600
X001850Y012600
M30
